<?xml version="1.0" encoding="UTF-8" standalone="no"?>
<svg
   xmlns:dc="http://purl.org/dc/elements/1.1/"
   xmlns:cc="http://creativecommons.org/ns#"
   xmlns:rdf="http://www.w3.org/1999/02/22-rdf-syntax-ns#"
   xmlns:svg="http://www.w3.org/2000/svg"
   xmlns="http://www.w3.org/2000/svg"
   xmlns:sodipodi="http://sodipodi.sourceforge.net/DTD/sodipodi-0.dtd"
   xmlns:inkscape="http://www.inkscape.org/namespaces/inkscape"
   version="1.1"
   id="svg2"
   xml:space="preserve"
   width="6416"
   height="6126.6665"
   viewBox="0 0 6416 6126.6665"
   sodipodi:docname="Crypchat 1.eps"><metadata
     id="metadata8"><rdf:RDF><cc:Work
         rdf:about=""><dc:format>image/svg+xml</dc:format><dc:type
           rdf:resource="http://purl.org/dc/dcmitype/StillImage" /></cc:Work></rdf:RDF></metadata><defs
     id="defs6" /><sodipodi:namedview
     pagecolor="#ffffff"
     bordercolor="#666666"
     borderopacity="1"
     objecttolerance="10"
     gridtolerance="10"
     guidetolerance="10"
     inkscape:pageopacity="0"
     inkscape:pageshadow="2"
     inkscape:window-width="640"
     inkscape:window-height="480"
     id="namedview4" /><g
     id="g10"
     inkscape:groupmode="layer"
     inkscape:label="ink_ext_XXXXXX"
     transform="matrix(1.3333333,0,0,-1.3333333,0,6126.6667)"><g
       id="g12"
       transform="scale(0.1)"><path
         d="M 13170.4,34310.9 H 34948 c 2554.3,0 4644.2,-2089.8 4644.2,-4644.1 V 15774.4 c 0,-2554.3 -2089.9,-4644.2 -4644.2,-4644.2 H 13170.4 c -2554.3,0 -4644.17,2089.9 -4644.17,4644.2 v 13892.4 c 0,2554.3 2089.87,4644.1 4644.17,4644.1"
         style="fill:#18b0d6;fill-opacity:1;fill-rule:evenodd;stroke:none"
         id="path14" /><path
         d="m 15973.4,25114.3 c 1322.1,0 2393.8,-1071.7 2393.8,-2393.7 0,-1322.1 -1071.7,-2393.8 -2393.8,-2393.8 -1322,0 -2393.7,1071.7 -2393.7,2393.8 0,1322 1071.7,2393.7 2393.7,2393.7"
         style="fill:#ffffff;fill-opacity:1;fill-rule:evenodd;stroke:none"
         id="path16" /><path
         d="m 24059.2,25114.3 c 1322.1,0 2393.8,-1071.7 2393.8,-2393.7 0,-1322.1 -1071.7,-2393.8 -2393.8,-2393.8 -1322,0 -2393.7,1071.7 -2393.7,2393.8 0,1322 1071.7,2393.7 2393.7,2393.7"
         style="fill:#ffffff;fill-opacity:1;fill-rule:evenodd;stroke:none"
         id="path18" /><path
         d="m 32145,25114.3 c 1322.1,0 2393.8,-1071.7 2393.8,-2393.7 0,-1322.1 -1071.7,-2393.8 -2393.8,-2393.8 -1322,0 -2393.7,1071.7 -2393.7,2393.8 0,1322 1071.7,2393.7 2393.7,2393.7"
         style="fill:#ffffff;fill-opacity:1;fill-rule:evenodd;stroke:none"
         id="path20" /><path
         d="m 24078.2,41091.2 c 2987.7,0 5435.1,-2315.2 5647.8,-5250.4 84.4,-244.6 315.3,-415.7 585.1,-415.7 h 3608.3 c 177.3,0 329.8,65.9 451.2,195.1 82.6,87.8 135.1,188.2 156.8,299.1 -257.6,5555.3 -4835.7,9981.3 -10449.2,9991.3 -6.3,0 -12.7,0 -19,0 -5613.5,-10 -10191.6,-4436 -10449.2,-9991.3 21.7,-110.9 74.2,-211.3 156.8,-299.1 121.4,-129.2 274,-195.1 451.2,-195.1 h 3608.3 c 269.8,0 500.7,171.1 585.1,415.7 212.7,2935.2 2660.1,5250.4 5647.8,5250.4 6.3,0 12.7,0 19,0"
         style="fill:#656263;fill-opacity:1;fill-rule:evenodd;stroke:none"
         id="path22" /><path
         d="M 5045.33,2954.49 6573.78,2190.27 C 6322.28,1551.79 5911.14,1034.24 5340.38,637.613 4769.63,240.988 4132.78,42.6758 3429.81,42.6758 2494.67,42.6758 1696.58,373.199 1035.53,1034.24 374.5,1695.29 43.9688,2493.38 43.9688,3428.51 c 0,935.14 330.5312,1733.22 991.5612,2394.27 661.05,661.04 1459.14,991.57 2394.28,991.57 702.97,0 1339.82,-198.32 1910.57,-594.94 570.76,-396.63 981.9,-914.18 1233.4,-1552.65 L 5045.33,3902.53 c -103.19,354.7 -303.11,646.53 -599.77,875.47 -296.67,228.96 -635.25,343.43 -1015.75,343.43 -470.79,0 -870.65,-164.46 -1199.56,-493.37 -328.91,-328.91 -493.36,-728.76 -493.36,-1199.55 0,-464.34 164.45,-862.58 493.36,-1194.71 328.91,-332.14 728.77,-498.21 1199.56,-498.21 380.5,0 719.08,114.48 1015.75,343.43 296.66,228.94 496.58,520.77 599.77,875.47"
         style="fill:#656263;fill-opacity:1;fill-rule:nonzero;stroke:none"
         id="path24" /><path
         d="m 12610.3,4105.68 c 0,-425.65 -93.6,-825.5 -280.6,-1199.55 -187,-374.06 -445,-690.07 -773.9,-948.04 L 12610.3,42.6758 h -1693 L 10172.5,1406.68 c -32.3,0 -77.4,-1.61 -135.5,-4.84 -58.03,-3.22 -99.95,-4.83 -125.73,-4.83 H 8895.5 V 42.6758 H 7202.59 V 6814.35 h 2708.68 c 748.13,0 1384.93,-264.42 1910.53,-793.26 525.6,-528.83 788.5,-1167.3 788.5,-1915.41 z m -1988,-715.87 c 196.7,199.93 295,438.55 295,715.87 0,277.31 -98.3,515.93 -295,715.86 -196.7,199.92 -433.7,299.89 -711.03,299.89 H 8895.5 v -2031.5 h 1015.77 c 277.33,0 514.33,99.96 711.03,299.88"
         style="fill:#656263;fill-opacity:1;fill-rule:nonzero;stroke:none"
         id="path26" /><path
         d="m 16334.7,6814.35 h 1692.9 L 15996.1,2751.34 V 42.6758 H 14303.2 V 2751.34 l -2031.5,4063.01 h 1692.9 l 1180.2,-2370.09 1189.9,2370.09"
         style="fill:#656263;fill-opacity:1;fill-rule:nonzero;stroke:none"
         id="path28" /><path
         d="m 23033.8,6021.09 c 525.6,-528.83 788.4,-1167.3 788.4,-1915.41 0,-748.11 -262.8,-1386.58 -788.4,-1915.41 -525.6,-528.84 -1162.5,-793.26 -1910.6,-793.26 H 20107.5 V 42.6758 h -1693 V 6814.35 h 2708.7 c 748.1,0 1385,-264.42 1910.6,-793.26 z M 21834.2,3389.81 c 196.7,199.93 295.1,438.55 295.1,715.87 0,277.31 -98.4,515.93 -295.1,715.86 -196.7,199.92 -433.7,299.89 -711,299.89 h -1015.7 v -2031.5 h 1015.7 c 277.3,0 514.3,99.96 711,299.88"
         style="fill:#656263;fill-opacity:1;fill-rule:nonzero;stroke:none"
         id="path30" /><path
         d="M 29210.5,2954.49 30739,2190.27 C 30487.5,1551.79 30076.3,1034.24 29505.6,637.613 28934.8,240.988 28298,42.6758 27595,42.6758 c -935.2,0 -1733.2,330.5232 -2394.3,991.5642 -661,661.05 -991.6,1459.14 -991.6,2394.27 0,935.14 330.6,1733.22 991.6,2394.27 661.1,661.04 1459.1,991.57 2394.3,991.57 703,0 1339.8,-198.32 1910.6,-594.94 570.7,-396.63 981.9,-914.18 1233.4,-1552.65 l -1528.5,-764.23 c -103.2,354.7 -303.1,646.53 -599.8,875.47 -296.6,228.96 -635.2,343.43 -1015.7,343.43 -470.8,0 -870.7,-164.46 -1199.6,-493.37 -328.9,-328.91 -493.3,-728.76 -493.3,-1199.55 0,-464.34 164.4,-862.58 493.3,-1194.71 328.9,-332.14 728.8,-498.21 1199.6,-498.21 380.5,0 719.1,114.48 1015.7,343.43 296.7,228.94 496.6,520.77 599.8,875.47"
         style="fill:#656263;fill-opacity:1;fill-rule:nonzero;stroke:none"
         id="path32" /><path
         d="M 36775.4,6814.35 V 42.6758 H 35082.5 V 2586.89 H 33060.7 V 42.6758 H 31367.8 V 6814.35 h 1692.9 V 4279.81 h 2021.8 v 2534.54 h 1692.9"
         style="fill:#656263;fill-opacity:1;fill-rule:nonzero;stroke:none"
         id="path34" /><path
         d="M 38855.3,42.6758 H 37162.4 L 39193.9,6814.35 h 2021.8 L 43247.2,42.6758 H 41554.3 L 41254.4,1058.43 H 39155.2 Z M 40200,4550.67 39667.9,2751.34 h 1073.8 z"
         style="fill:#656263;fill-opacity:1;fill-rule:nonzero;stroke:none"
         id="path36" /><path
         d="M 48074.4,6814.35 V 5121.43 H 46217.1 V 42.6758 h -1693 V 5121.43 h -1857.3 v 1692.92 h 5407.6"
         style="fill:#656263;fill-opacity:1;fill-rule:nonzero;stroke:none"
         id="path38" /></g></g></svg>
