<?xml version="1.0" encoding="UTF-8" standalone="no"?>
<svg
   xmlns:dc="http://purl.org/dc/elements/1.1/"
   xmlns:cc="http://creativecommons.org/ns#"
   xmlns:rdf="http://www.w3.org/1999/02/22-rdf-syntax-ns#"
   xmlns:svg="http://www.w3.org/2000/svg"
   xmlns="http://www.w3.org/2000/svg"
   xmlns:sodipodi="http://sodipodi.sourceforge.net/DTD/sodipodi-0.dtd"
   xmlns:inkscape="http://www.inkscape.org/namespaces/inkscape"
   version="1.1"
   id="svg2"
   xml:space="preserve"
   width="1953.3333"
   height="2185.3333"
   viewBox="0 0 1953.3333 2185.3333"
   sodipodi:docname="Crypchat 3.eps"><metadata
     id="metadata8"><rdf:RDF><cc:Work
         rdf:about=""><dc:format>image/svg+xml</dc:format><dc:type
           rdf:resource="http://purl.org/dc/dcmitype/StillImage" /></cc:Work></rdf:RDF></metadata><defs
     id="defs6" /><sodipodi:namedview
     pagecolor="#ffffff"
     bordercolor="#666666"
     borderopacity="1"
     objecttolerance="10"
     gridtolerance="10"
     guidetolerance="10"
     inkscape:pageopacity="0"
     inkscape:pageshadow="2"
     inkscape:window-width="640"
     inkscape:window-height="480"
     id="namedview4" /><g
     id="g10"
     inkscape:groupmode="layer"
     inkscape:label="ink_ext_XXXXXX"
     transform="matrix(1.3333333,0,0,-1.3333333,0,2185.3333)"><g
       id="g12"
       transform="scale(0.1)"><path
         d="M 2221.11,10912.9 H 12432.7 c 1197.7,0 2177.7,-980 2177.7,-2177.72 V 2220.99 c 0,-1197.72 -980,-2177.6814 -2177.7,-2177.6814 H 2221.11 C 1023.39,43.3086 43.4414,1023.27 43.4414,2220.99 v 6514.19 c 0,1197.72 979.9486,2177.72 2177.6686,2177.72"
         style="fill:#18b0d6;fill-opacity:1;fill-rule:evenodd;stroke:none"
         id="path14" /><path
         d="m 3535.45,6600.52 c 619.91,0 1122.44,-502.53 1122.44,-1122.44 0,-619.9 -502.53,-1122.44 -1122.44,-1122.44 -619.9,0 -1122.44,502.54 -1122.44,1122.44 0,619.91 502.54,1122.44 1122.44,1122.44"
         style="fill:#ffffff;fill-opacity:1;fill-rule:evenodd;stroke:none"
         id="path16" /><path
         d="m 7326.91,6600.52 c 619.91,0 1122.45,-502.53 1122.45,-1122.44 0,-619.9 -502.54,-1122.44 -1122.45,-1122.44 -619.9,0 -1122.43,502.54 -1122.43,1122.44 0,619.91 502.53,1122.44 1122.43,1122.44"
         style="fill:#ffffff;fill-opacity:1;fill-rule:evenodd;stroke:none"
         id="path18" /><path
         d="m 11118.4,6600.52 c 619.9,0 1122.4,-502.53 1122.4,-1122.44 0,-619.9 -502.5,-1122.44 -1122.4,-1122.44 -619.9,0 -1122.46,502.54 -1122.46,1122.44 0,619.91 502.56,1122.44 1122.46,1122.44"
         style="fill:#ffffff;fill-opacity:1;fill-rule:evenodd;stroke:none"
         id="path20" /><path
         d="m 7335.8,14092.1 c 1400.97,0 2548.54,-1085.6 2648.3,-2461.9 39.6,-114.7 147.8,-194.9 274.3,-194.9 h 1692 c 83.1,0 154.6,30.9 211.6,91.5 38.7,41.2 63.3,88.2 73.5,140.2 -120.8,2604.9 -2267.5,4680.3 -4899.7,4685 -2.96,0 -5.92,0 -8.89,0 -2632.2,-4.7 -4778.86,-2080.1 -4899.68,-4685 10.19,-52 34.81,-99 73.53,-140.2 56.93,-60.6 128.45,-91.5 211.57,-91.5 h 1691.95 c 126.5,0 234.77,80.2 274.33,194.9 99.77,1376.3 1247.33,2461.9 2648.3,2461.9 2.97,0 5.93,0 8.89,0"
         style="fill:#656263;fill-opacity:1;fill-rule:evenodd;stroke:none"
         id="path22" /></g></g></svg>
