<?xml version="1.0" encoding="UTF-8" standalone="no"?>
<svg
   xmlns:dc="http://purl.org/dc/elements/1.1/"
   xmlns:cc="http://creativecommons.org/ns#"
   xmlns:rdf="http://www.w3.org/1999/02/22-rdf-syntax-ns#"
   xmlns:svg="http://www.w3.org/2000/svg"
   xmlns="http://www.w3.org/2000/svg"
   xmlns:sodipodi="http://sodipodi.sourceforge.net/DTD/sodipodi-0.dtd"
   xmlns:inkscape="http://www.inkscape.org/namespaces/inkscape"
   version="1.1"
   id="svg2"
   xml:space="preserve"
   width="9592"
   height="2325.3333"
   viewBox="0 0 9592 2325.3333"
   sodipodi:docname="Crypchat 2.eps"><metadata
     id="metadata8"><rdf:RDF><cc:Work
         rdf:about=""><dc:format>image/svg+xml</dc:format><dc:type
           rdf:resource="http://purl.org/dc/dcmitype/StillImage" /></cc:Work></rdf:RDF></metadata><defs
     id="defs6" /><sodipodi:namedview
     pagecolor="#ffffff"
     bordercolor="#666666"
     borderopacity="1"
     objecttolerance="10"
     gridtolerance="10"
     guidetolerance="10"
     inkscape:pageopacity="0"
     inkscape:pageshadow="2"
     inkscape:window-width="640"
     inkscape:window-height="480"
     id="namedview4" /><g
     id="g10"
     inkscape:groupmode="layer"
     inkscape:label="ink_ext_XXXXXX"
     transform="matrix(1.3333333,0,0,-1.3333333,0,2325.3333)"><g
       id="g12"
       transform="scale(0.1)"><path
         d="M 2354.61,11608.4 H 13224.7 c 1275,0 2318.1,-1043.1 2318.1,-2318.09 V 2356.05 C 15542.8,1081.09 14499.7,37.9414 13224.7,37.9414 H 2354.61 C 1079.65,37.9414 36.5,1081.09 36.5,2356.05 v 6934.26 c 0,1274.99 1043.15,2318.09 2318.11,2318.09"
         style="fill:#18b0d6;fill-opacity:1;fill-rule:evenodd;stroke:none"
         id="path14" /><path
         d="m 3753.7,7018 c 659.89,0 1194.82,-534.94 1194.82,-1194.82 0,-659.88 -534.93,-1194.82 -1194.82,-1194.82 -659.88,0 -1194.82,534.94 -1194.82,1194.82 0,659.88 534.94,1194.82 1194.82,1194.82"
         style="fill:#ffffff;fill-opacity:1;fill-rule:evenodd;stroke:none"
         id="path16" /><path
         d="m 7789.66,7018 c 659.88,0 1194.82,-534.94 1194.82,-1194.82 0,-659.88 -534.94,-1194.82 -1194.82,-1194.82 -659.89,0 -1194.82,534.94 -1194.82,1194.82 0,659.88 534.93,1194.82 1194.82,1194.82"
         style="fill:#ffffff;fill-opacity:1;fill-rule:evenodd;stroke:none"
         id="path18" /><path
         d="m 11825.6,7018 c 659.9,0 1194.8,-534.94 1194.8,-1194.82 0,-659.88 -534.9,-1194.82 -1194.8,-1194.82 -659.9,0 -1194.8,534.94 -1194.8,1194.82 0,659.88 534.9,1194.82 1194.8,1194.82"
         style="fill:#ffffff;fill-opacity:1;fill-rule:evenodd;stroke:none"
         id="path20" /><path
         d="m 7799.12,14992.7 c 1491.32,0 2712.88,-1155.6 2819.08,-2620.6 42.1,-122.1 157.4,-207.6 292,-207.6 h 1801.1 c 88.5,0 164.6,32.9 225.2,97.4 41.2,43.9 67.4,94 78.3,149.3 -128.6,2772.9 -2413.7,4982.1 -5215.68,4987.1 -3.16,0 -6.31,0 -9.46,0 -2801.94,-5 -5087.04,-2214.2 -5215.64,-4987.1 10.83,-55.3 37.04,-105.4 78.26,-149.3 60.6,-64.5 136.74,-97.4 225.21,-97.4 h 1801.06 c 134.66,0 249.92,85.5 292.03,207.6 106.2,1465 1327.76,2620.6 2819.08,2620.6 3.15,0 6.3,0 9.46,0"
         style="fill:#656263;fill-opacity:1;fill-rule:evenodd;stroke:none"
         id="path22" /><path
         d="M 24121.4,4900.84 25818.5,4052.3 C 25539.2,3343.4 25082.8,2768.75 24449,2328.38 23815.3,1888 23108.2,1667.8 22327.7,1667.8 c -1038.3,0 -1924.4,366.99 -2658.4,1100.95 -734,733.97 -1101,1620.11 -1101,2658.4 0,1038.3 367,1924.42 1101,2658.39 734,733.97 1620.1,1100.96 2658.4,1100.96 780.5,0 1487.6,-220.2 2121.3,-660.57 633.8,-440.39 1090.2,-1015.03 1369.5,-1723.93 l -1697.1,-848.54 c -114.5,393.83 -336.5,717.85 -665.9,972.06 -329.4,254.2 -705.3,381.3 -1127.8,381.3 -522.7,0 -966.7,-182.59 -1331.9,-547.79 -365.2,-365.19 -547.8,-809.15 -547.8,-1331.88 0,-515.57 182.6,-957.74 547.8,-1326.51 365.2,-368.78 809.2,-553.16 1331.9,-553.16 422.5,0 798.4,127.1 1127.8,381.3 329.4,254.2 551.4,578.22 665.9,972.06"
         style="fill:#656263;fill-opacity:1;fill-rule:nonzero;stroke:none"
         id="path24" /><path
         d="m 32520.9,6179.02 c 0,-472.61 -103.8,-916.56 -311.5,-1331.88 -207.7,-415.32 -494.1,-766.19 -859.3,-1052.62 L 32520.9,1667.8 h -1879.7 l -827,1514.49 c -35.8,0 -86,-1.8 -150.4,-5.38 -64.5,-3.58 -111,-5.37 -139.7,-5.37 H 28396.3 V 1667.8 h -1879.6 v 7518.7 h 3007.4 c 830.7,0 1537.8,-293.59 2121.4,-880.77 583.6,-587.17 875.4,-1296.07 875.4,-2126.71 z m -2207.3,-794.83 c 218.4,221.97 327.6,486.92 327.6,794.83 0,307.91 -109.2,572.85 -327.6,794.83 -218.4,221.98 -481.5,332.97 -789.5,332.97 H 28396.3 V 5051.21 h 1127.8 c 308,0 571.1,111 789.5,332.98"
         style="fill:#656263;fill-opacity:1;fill-rule:nonzero;stroke:none"
         id="path26" /><path
         d="m 36656.2,9186.5 h 1879.6 L 36280.2,4675.28 V 1667.8 H 34400.6 V 4675.28 L 32145,9186.5 h 1879.6 L 35335,6554.95 36656.2,9186.5"
         style="fill:#656263;fill-opacity:1;fill-rule:nonzero;stroke:none"
         id="path28" /><path
         d="m 44094.3,8305.73 c 583.6,-587.17 875.4,-1296.07 875.4,-2126.71 0,-830.64 -291.8,-1539.54 -875.4,-2126.72 -583.6,-587.17 -1290.7,-880.76 -2121.4,-880.76 H 40845.1 V 1667.8 h -1879.6 v 7518.7 h 3007.4 c 830.7,0 1537.8,-293.59 2121.4,-880.77 z M 42762.4,5384.19 c 218.4,221.97 327.6,486.92 327.6,794.83 0,307.91 -109.2,572.85 -327.6,794.83 -218.4,221.98 -481.5,332.97 -789.5,332.97 H 40845.1 V 5051.21 h 1127.8 c 308,0 571.1,111 789.5,332.98"
         style="fill:#656263;fill-opacity:1;fill-rule:nonzero;stroke:none"
         id="path30" /><path
         d="M 50952.4,4900.84 52649.5,4052.3 C 52370.2,3343.4 51913.7,2768.75 51280,2328.38 50646.3,1888 49939.2,1667.8 49158.7,1667.8 c -1038.3,0 -1924.5,366.99 -2658.4,1100.95 -734,733.97 -1101,1620.11 -1101,2658.4 0,1038.3 367,1924.42 1101,2658.39 733.9,733.97 1620.1,1100.96 2658.4,1100.96 780.5,0 1487.6,-220.2 2121.3,-660.57 633.7,-440.39 1090.2,-1015.03 1369.5,-1723.93 l -1697.1,-848.54 c -114.6,393.83 -336.5,717.85 -665.9,972.06 -329.4,254.2 -705.4,381.3 -1127.8,381.3 -522.8,0 -966.7,-182.59 -1331.9,-547.79 -365.2,-365.19 -547.8,-809.15 -547.8,-1331.88 0,-515.57 182.6,-957.74 547.8,-1326.51 365.2,-368.78 809.1,-553.16 1331.9,-553.16 422.4,0 798.4,127.1 1127.8,381.3 329.4,254.2 551.3,578.22 665.9,972.06"
         style="fill:#656263;fill-opacity:1;fill-rule:nonzero;stroke:none"
         id="path32" /><path
         d="M 59351.9,9186.5 V 1667.8 H 57472.2 V 4492.68 H 55227.3 V 1667.8 h -1879.6 v 7518.7 h 1879.6 V 6372.36 h 2244.9 V 9186.5 h 1879.7"
         style="fill:#656263;fill-opacity:1;fill-rule:nonzero;stroke:none"
         id="path34" /><path
         d="m 61661.2,1667.8 h -1879.7 l 2255.6,7518.7 H 64282 l 2255.6,-7518.7 h -1879.7 l -333,1127.81 h -2330.8 z m 1493,5005.3 -590.8,-1997.82 h 1192.3 z"
         style="fill:#656263;fill-opacity:1;fill-rule:nonzero;stroke:none"
         id="path36" /><path
         d="M 71897.3,9186.5 V 7306.82 H 69835.1 V 1667.8 H 67955.4 V 7306.82 H 65893.1 V 9186.5 h 6004.2"
         style="fill:#656263;fill-opacity:1;fill-rule:nonzero;stroke:none"
         id="path38" /></g></g></svg>
